<svg xmlns="http://www.w3.org/2000/svg" viewBox="0 0 48 48"><defs><style>.cls-1{fill:#1e0f00;}</style></defs><title>Asset 51</title><g id="Layer_2" data-name="Layer 2"><g id="_1" data-name="1"><rect class="cls-1" y="46" width="48" height="2"/><rect class="cls-1" x="3" y="30" width="42" height="2"/><rect class="cls-1" x="3" y="15" width="42" height="2"/><rect class="cls-1" x="3" width="42" height="2"/><path class="cls-1" d="M43,48H5a1,1,0,0,1-1-1V1A1,1,0,0,1,5,0H43a1,1,0,0,1,1,1V47A1,1,0,0,1,43,48ZM6,46H42V2H6Z"/><path class="cls-1" d="M16,48H10a1,1,0,0,1-1-1V35a1,1,0,0,1,1-1h6a1,1,0,0,1,1,1V47A1,1,0,0,1,16,48Zm-5-2h4V36H11Z"/><path class="cls-1" d="M27,42H21a1,1,0,0,1-1-1V35a1,1,0,0,1,1-1h6a1,1,0,0,1,1,1v6A1,1,0,0,1,27,42Zm-5-2h4V36H22Z"/><path class="cls-1" d="M38,42H32a1,1,0,0,1-1-1V35a1,1,0,0,1,1-1h6a1,1,0,0,1,1,1v6A1,1,0,0,1,38,42Zm-5-2h4V36H33Z"/><path class="cls-1" d="M27,27H21a1,1,0,0,1-1-1V20a1,1,0,0,1,1-1h6a1,1,0,0,1,1,1v6A1,1,0,0,1,27,27Zm-5-2h4V21H22Z"/><path class="cls-1" d="M38,27H32a1,1,0,0,1-1-1V20a1,1,0,0,1,1-1h6a1,1,0,0,1,1,1v6A1,1,0,0,1,38,27Zm-5-2h4V21H33Z"/><path class="cls-1" d="M27,12H21a1,1,0,0,1-1-1V5a1,1,0,0,1,1-1h6a1,1,0,0,1,1,1v6A1,1,0,0,1,27,12Zm-5-2h4V6H22Z"/><path class="cls-1" d="M16,12H10a1,1,0,0,1-1-1V5a1,1,0,0,1,1-1h6a1,1,0,0,1,1,1v6A1,1,0,0,1,16,12Zm-5-2h4V6H11Z"/><path class="cls-1" d="M16,27H10a1,1,0,0,1-1-1V20a1,1,0,0,1,1-1h6a1,1,0,0,1,1,1v6A1,1,0,0,1,16,27Zm-5-2h4V21H11Z"/><path class="cls-1" d="M38,12H32a1,1,0,0,1-1-1V5a1,1,0,0,1,1-1h6a1,1,0,0,1,1,1v6A1,1,0,0,1,38,12Zm-5-2h4V6H33Z"/></g></g></svg>